<svg width="160" height="160" viewBox="0 0 160 160" fill="none" xmlns="http://www.w3.org/2000/svg">
<path d="M69.5093 36.8443L74.2436 19.1308C74.2436 19.1308 83.2269 19.1192 89.8074 19.1192C114.016 19.1192 134.164 38.6431 134.164 63.4928C134.164 88.706 113.827 107.802 89.7892 107.802C73.8419 107.802 38.9418 107.793 32.1289 107.793L36.8688 90.0586C45.5601 90.0586 82.1241 90.0658 89.795 90.0658C104.703 90.0658 116.435 78.1274 116.435 63.4839C116.435 48.2597 104.021 36.8485 89.7959 36.8485C84.5475 36.8485 74.414 36.8443 69.5093 36.8443Z" fill="#02AE9B"/>
<path d="M69.5021 36.8501H51.1304L39.2391 81.189H57.6175L69.5021 36.8501Z" fill="#02AE9B"/>
<path d="M86.5518 19.1298H55.9148L47.9736 48.6869H78.6492L86.5518 19.1298Z" fill="#02AE9B"/>
<path d="M86.5518 19.1298H55.9148L47.9736 48.6869H78.6492L86.5518 19.1298Z" fill="white" fill-opacity="0.5"/>
<path d="M78.6492 48.6869L86.5518 19.1298L47.9736 48.6869H78.6492Z" fill="#00775E"/>
<path d="M133.23 137.32C133.747 137.32 134.177 137.243 134.522 137.09L134.063 140.507C133.297 140.756 132.483 140.881 131.622 140.881C130.511 140.881 129.592 140.661 128.865 140.22C128.156 139.78 127.668 139.167 127.4 138.382C126.041 140.048 124.222 140.881 121.944 140.881C120.738 140.881 119.627 140.603 118.612 140.048C117.598 139.493 116.784 138.698 116.171 137.664C115.578 136.611 115.281 135.377 115.281 133.96C115.281 132.256 115.655 130.724 116.401 129.365C117.167 127.987 118.201 126.914 119.503 126.149C120.805 125.364 122.24 124.971 123.81 124.971C126.184 124.971 127.86 125.747 128.836 127.297L129.238 125.201H133.718L131.708 135.223C131.669 135.377 131.65 135.587 131.65 135.855C131.65 136.353 131.784 136.726 132.052 136.975C132.34 137.205 132.732 137.32 133.23 137.32ZM123.322 137.176C124.203 137.176 124.988 136.966 125.677 136.544C126.366 136.104 126.902 135.501 127.285 134.735C127.668 133.969 127.86 133.089 127.86 132.093C127.86 131.04 127.544 130.207 126.912 129.595C126.299 128.982 125.438 128.676 124.327 128.676C123.447 128.676 122.662 128.896 121.972 129.336C121.283 129.757 120.747 130.351 120.364 131.117C119.981 131.883 119.79 132.763 119.79 133.759C119.79 134.812 120.096 135.645 120.709 136.257C121.341 136.87 122.212 137.176 123.322 137.176Z" fill="white"/>
<path d="M107.133 124.971C108.818 124.971 110.158 125.431 111.153 126.35C112.149 127.249 112.647 128.532 112.647 130.198C112.647 130.81 112.58 131.442 112.446 132.093L110.751 140.651H106.271L107.908 132.409C107.985 132.026 108.023 131.634 108.023 131.232C108.023 130.447 107.813 129.853 107.391 129.451C106.989 129.049 106.386 128.848 105.582 128.848C103.419 128.848 102.069 130.14 101.533 132.725L99.9536 140.651H95.4736L97.1105 132.409C97.1871 132.026 97.2254 131.643 97.2254 131.26C97.2254 130.475 97.0148 129.882 96.5936 129.48C96.1915 129.059 95.5885 128.848 94.7844 128.848C92.621 128.848 91.2617 130.16 90.7065 132.782L89.1557 140.651H84.6758L87.7486 125.201H91.9988L91.6542 126.809C92.9943 125.584 94.6121 124.971 96.5074 124.971C97.5796 124.971 98.5272 125.191 99.3505 125.632C100.193 126.053 100.825 126.675 101.246 127.498C101.993 126.675 102.864 126.053 103.859 125.632C104.855 125.191 105.946 124.971 107.133 124.971Z" fill="white"/>
<path d="M75.8647 140.881C74.2757 140.881 72.8877 140.594 71.7007 140.019C70.5137 139.445 69.5947 138.641 68.9438 137.607C68.312 136.554 67.9961 135.338 67.9961 133.96C67.9961 132.256 68.3981 130.724 69.2022 129.365C70.0063 128.006 71.1263 126.934 72.5622 126.149C73.9981 125.364 75.6158 124.971 77.4155 124.971C79.062 124.971 80.4787 125.316 81.6657 126.005C82.8718 126.675 83.7716 127.632 84.3651 128.877L80.5744 130.772C79.9043 129.375 78.7556 128.676 77.1283 128.676C76.2476 128.676 75.4531 128.896 74.7447 129.336C74.0555 129.757 73.5099 130.351 73.1078 131.117C72.7249 131.883 72.5335 132.754 72.5335 133.73C72.5335 134.783 72.8494 135.625 73.4812 136.257C74.1129 136.87 74.9936 137.176 76.1232 137.176C77.7697 137.176 79.0332 136.487 79.9139 135.109L83.2164 137.176C82.4698 138.344 81.4455 139.253 80.1437 139.904C78.8609 140.555 77.4346 140.881 75.8647 140.881Z" fill="white"/>
<path d="M56.9895 140.881C55.4388 140.881 54.0699 140.594 52.8829 140.019C51.715 139.445 50.8056 138.641 50.1547 137.607C49.5229 136.554 49.207 135.338 49.207 133.96C49.207 132.256 49.6091 130.724 50.4132 129.365C51.2173 128.006 52.3277 126.934 53.7444 126.149C55.1612 125.364 56.7598 124.971 58.5403 124.971C60.1102 124.971 61.479 125.258 62.6469 125.833C63.8147 126.407 64.7146 127.221 65.3463 128.274C65.9973 129.308 66.3227 130.514 66.3227 131.892C66.3227 133.596 65.9207 135.128 65.1166 136.487C64.3316 137.846 63.2212 138.918 61.7854 139.703C60.3686 140.488 58.77 140.881 56.9895 140.881ZM57.2767 137.176C58.1382 137.176 58.9136 136.966 59.6028 136.544C60.292 136.104 60.8281 135.501 61.211 134.735C61.5939 133.969 61.7854 133.089 61.7854 132.093C61.7854 131.04 61.479 130.207 60.8664 129.595C60.2537 128.982 59.3922 128.676 58.2818 128.676C57.4011 128.676 56.6162 128.896 55.927 129.336C55.2377 129.757 54.7017 130.351 54.3188 131.117C53.9359 131.883 53.7444 132.763 53.7444 133.759C53.7444 134.812 54.0507 135.645 54.6634 136.257C55.2952 136.87 56.1663 137.176 57.2767 137.176Z" fill="white"/>
<path d="M29.5019 120.549H37.9162C39.9647 120.549 41.726 120.893 43.2002 121.582C44.6935 122.252 45.8327 123.219 46.6176 124.483C47.4217 125.746 47.8238 127.23 47.8238 128.934C47.8238 131.27 47.2973 133.328 46.2443 135.108C45.1913 136.87 43.7171 138.239 41.8218 139.215C39.9456 140.172 37.7726 140.651 35.3029 140.651H25.4814L29.5019 120.549ZM35.4465 136.831C37.0164 136.831 38.3757 136.506 39.5244 135.855C40.6922 135.185 41.5825 134.276 42.1951 133.127C42.8077 131.959 43.1141 130.648 43.1141 129.193C43.1141 127.68 42.6259 126.503 41.6495 125.66C40.6731 124.799 39.2563 124.368 37.3993 124.368H33.4075L30.9091 136.831H35.4465Z" fill="white"/>
</svg>
