<svg width="160" height="160" viewBox="0 0 160 160" fill="none" xmlns="http://www.w3.org/2000/svg">
<path d="M69.5093 36.8464L74.2436 19.1329C74.2436 19.1329 83.2269 19.1214 89.8074 19.1214C114.016 19.1214 134.164 38.6453 134.164 63.4949C134.164 88.7081 113.827 107.805 89.7892 107.805C73.8419 107.805 38.9418 107.795 32.1289 107.795L36.8688 90.0607C45.5601 90.0607 82.1241 90.0679 89.795 90.0679C104.703 90.0679 116.435 78.1295 116.435 63.4861C116.435 48.2618 104.021 36.8507 89.7959 36.8507C84.5475 36.8507 74.414 36.8464 69.5093 36.8464Z" fill="#02AE9B"/>
<path d="M69.5021 36.8523H51.1304L39.2391 81.1911H57.6175L69.5021 36.8523Z" fill="#02AE9B"/>
<path d="M86.5518 19.1319H55.9148L47.9736 48.6891H78.6492L86.5518 19.1319Z" fill="#02AE9B"/>
<path d="M86.5518 19.1319H55.9148L47.9736 48.6891H78.6492L86.5518 19.1319Z" fill="white" fill-opacity="0.5"/>
<path d="M78.6492 48.6891L86.5518 19.1319L47.9736 48.6891H78.6492Z" fill="#00775E"/>
<path d="M133.23 137.322C133.747 137.322 134.177 137.245 134.522 137.092L134.063 140.51C133.297 140.758 132.483 140.883 131.622 140.883C130.511 140.883 129.592 140.663 128.865 140.222C128.156 139.782 127.668 139.169 127.4 138.384C126.041 140.05 124.222 140.883 121.944 140.883C120.738 140.883 119.627 140.605 118.612 140.05C117.598 139.495 116.784 138.7 116.171 137.667C115.578 136.614 115.281 135.379 115.281 133.962C115.281 132.258 115.655 130.726 116.401 129.367C117.167 127.989 118.201 126.917 119.503 126.151C120.805 125.366 122.24 124.973 123.81 124.973C126.184 124.973 127.86 125.749 128.836 127.299L129.238 125.203H133.718L131.708 135.226C131.669 135.379 131.65 135.589 131.65 135.857C131.65 136.355 131.784 136.728 132.052 136.977C132.34 137.207 132.732 137.322 133.23 137.322ZM123.322 137.178C124.203 137.178 124.988 136.968 125.677 136.547C126.366 136.106 126.902 135.503 127.285 134.737C127.668 133.972 127.86 133.091 127.86 132.095C127.86 131.042 127.544 130.21 126.912 129.597C126.299 128.984 125.438 128.678 124.327 128.678C123.447 128.678 122.662 128.898 121.972 129.338C121.283 129.76 120.747 130.353 120.364 131.119C119.981 131.885 119.79 132.765 119.79 133.761C119.79 134.814 120.096 135.647 120.709 136.259C121.341 136.872 122.212 137.178 123.322 137.178Z" fill="#002C27"/>
<path d="M107.133 124.973C108.818 124.973 110.158 125.433 111.153 126.352C112.149 127.252 112.647 128.534 112.647 130.2C112.647 130.813 112.58 131.444 112.446 132.095L110.751 140.653H106.271L107.908 132.411C107.985 132.028 108.023 131.636 108.023 131.234C108.023 130.449 107.813 129.855 107.391 129.453C106.989 129.051 106.386 128.85 105.582 128.85C103.419 128.85 102.069 130.143 101.533 132.727L99.9536 140.653H95.4736L97.1105 132.411C97.1871 132.028 97.2254 131.645 97.2254 131.262C97.2254 130.478 97.0148 129.884 96.5936 129.482C96.1915 129.061 95.5885 128.85 94.7844 128.85C92.621 128.85 91.2617 130.162 90.7065 132.785L89.1557 140.653H84.6758L87.7486 125.203H91.9988L91.6542 126.811C92.9943 125.586 94.6121 124.973 96.5074 124.973C97.5796 124.973 98.5272 125.193 99.3505 125.634C100.193 126.055 100.825 126.677 101.246 127.5C101.993 126.677 102.864 126.055 103.859 125.634C104.855 125.193 105.946 124.973 107.133 124.973Z" fill="#002C27"/>
<path d="M75.8647 140.883C74.2757 140.883 72.8877 140.596 71.7007 140.021C70.5137 139.447 69.5947 138.643 68.9438 137.609C68.312 136.556 67.9961 135.34 67.9961 133.962C67.9961 132.258 68.3981 130.726 69.2022 129.367C70.0063 128.008 71.1263 126.936 72.5622 126.151C73.9981 125.366 75.6158 124.973 77.4155 124.973C79.062 124.973 80.4787 125.318 81.6657 126.007C82.8718 126.677 83.7716 127.634 84.3651 128.879L80.5744 130.774C79.9043 129.377 78.7556 128.678 77.1283 128.678C76.2476 128.678 75.4531 128.898 74.7447 129.338C74.0555 129.76 73.5099 130.353 73.1078 131.119C72.7249 131.885 72.5335 132.756 72.5335 133.732C72.5335 134.785 72.8494 135.628 73.4812 136.259C74.1129 136.872 74.9936 137.178 76.1232 137.178C77.7697 137.178 79.0332 136.489 79.9139 135.111L83.2164 137.178C82.4698 138.346 81.4455 139.256 80.1437 139.906C78.8609 140.557 77.4346 140.883 75.8647 140.883Z" fill="#002C27"/>
<path d="M56.9895 140.883C55.4388 140.883 54.0699 140.596 52.8829 140.021C51.715 139.447 50.8056 138.643 50.1547 137.609C49.5229 136.556 49.207 135.34 49.207 133.962C49.207 132.258 49.6091 130.726 50.4132 129.367C51.2173 128.008 52.3277 126.936 53.7444 126.151C55.1612 125.366 56.7598 124.973 58.5403 124.973C60.1102 124.973 61.479 125.261 62.6469 125.835C63.8147 126.409 64.7146 127.223 65.3463 128.276C65.9973 129.31 66.3227 130.516 66.3227 131.894C66.3227 133.598 65.9207 135.13 65.1166 136.489C64.3316 137.848 63.2212 138.921 61.7854 139.705C60.3686 140.49 58.77 140.883 56.9895 140.883ZM57.2767 137.178C58.1382 137.178 58.9136 136.968 59.6028 136.547C60.292 136.106 60.8281 135.503 61.211 134.737C61.5939 133.972 61.7854 133.091 61.7854 132.095C61.7854 131.042 61.479 130.21 60.8664 129.597C60.2537 128.984 59.3922 128.678 58.2818 128.678C57.4011 128.678 56.6162 128.898 55.927 129.338C55.2377 129.76 54.7017 130.353 54.3188 131.119C53.9359 131.885 53.7444 132.765 53.7444 133.761C53.7444 134.814 54.0507 135.647 54.6634 136.259C55.2952 136.872 56.1663 137.178 57.2767 137.178Z" fill="#002C27"/>
<path d="M29.5019 120.551H37.9162C39.9647 120.551 41.726 120.895 43.2002 121.584C44.6935 122.255 45.8327 123.221 46.6176 124.485C47.4217 125.749 47.8238 127.232 47.8238 128.936C47.8238 131.272 47.2973 133.33 46.2443 135.11C45.1913 136.872 43.7171 138.241 41.8218 139.217C39.9456 140.174 37.7726 140.653 35.3029 140.653H25.4814L29.5019 120.551ZM35.4465 136.834C37.0164 136.834 38.3757 136.508 39.5244 135.857C40.6922 135.187 41.5825 134.278 42.1951 133.129C42.8077 131.961 43.1141 130.65 43.1141 129.195C43.1141 127.682 42.6259 126.505 41.6495 125.662C40.6731 124.801 39.2563 124.37 37.3993 124.37H33.4075L30.9091 136.834H35.4465Z" fill="#002C27"/>
</svg>
