<?xml version="1.0" encoding="UTF-8" standalone="no"?>
<!-- Created with Inkscape (http://www.inkscape.org/) -->

<svg
   version="1.1"
   id="svg1"
   width="1066.6667"
   height="1066.6667"
   viewBox="0 0 1066.6667 1066.6667"
   sodipodi:docname="jindabyne-red.svg"
   inkscape:version="1.4.2 (ebf0e940, 2025-05-08)"
   xmlns:inkscape="http://www.inkscape.org/namespaces/inkscape"
   xmlns:sodipodi="http://sodipodi.sourceforge.net/DTD/sodipodi-0.dtd"
   xmlns="http://www.w3.org/2000/svg"
   xmlns:svg="http://www.w3.org/2000/svg">
  <defs
     id="defs1" />
  <sodipodi:namedview
     id="namedview1"
     pagecolor="#ffffff"
     bordercolor="#666666"
     borderopacity="1.0"
     inkscape:showpageshadow="2"
     inkscape:pageopacity="0.0"
     inkscape:pagecheckerboard="true"
     inkscape:deskcolor="#d1d1d1"
     inkscape:zoom="0.55687496"
     inkscape:cx="534.23124"
     inkscape:cy="534.23124"
     inkscape:window-width="1752"
     inkscape:window-height="964"
     inkscape:window-x="0"
     inkscape:window-y="25"
     inkscape:window-maximized="0"
     inkscape:current-layer="g1"
     showgrid="false">
    <inkscape:grid
       id="grid1"
       units="px"
       originx="0"
       originy="0"
       spacingx="0.99999995"
       spacingy="0.99999995"
       empcolor="#0099e5"
       empopacity="0.30196078"
       color="#0099e5"
       opacity="0.14901961"
       empspacing="5"
       enabled="true"
       visible="false" />
  </sodipodi:namedview>
  <g
     inkscape:groupmode="layer"
     inkscape:label="Image"
     id="g1"
     style="display:inline">
    <path
       id="path2"
       style="display:inline;fill:#d3000f;fill-opacity:1"
       d="M 657.20117 31.339844 C 648.1965 31.335944 640.3995 31.979377 638.53516 32.878906 C 636.77414 33.728585 631.20857 36.281879 626.16797 38.552734 C 609.42136 46.097301 594.61132 64.785743 590.05273 84.125 C 586.12209 100.80028 587.8494 114.65095 595.94336 131.37305 C 600.04565 139.84837 603.23692 144.13939 610.61719 151.10156 C 615.80483 155.99531 620.87501 160 621.88281 160 C 622.8906 160 623.99914 160.74935 624.3457 161.66602 C 625.05939 163.55374 622.81272 265.84775 621.96484 270.07031 C 621.51533 272.30888 619.52347 273.19681 611.04102 274.94141 C 592.77846 278.69747 580.00242 283.10635 564.76172 290.91016 C 554.19058 296.32297 539.61428 305.43558 533.33398 310.55664 C 531.50065 312.05157 529.48684 313.28642 528.85938 313.30273 C 527.48212 313.33853 523.0971 309.69968 507.38867 295.48047 C 500.81867 289.53333 491.46363 281.06602 486.60156 276.66602 C 481.73949 272.26602 472.71993 264.16602 466.55664 258.66602 C 442.26235 236.98627 442.32855 237.06351 443.91211 232.89844 C 448.4053 221.08045 442.35102 200.92846 431.15039 190.41797 C 419.96559 179.92234 398.62782 176.62958 384.48047 183.2168 C 374.96799 187.64596 367.62881 194.69431 363.16016 203.69141 C 359.82439 210.40759 359.36767 212.7877 359.39453 223.33398 C 359.42083 233.65703 359.91376 236.27165 362.92578 242.05273 C 367.18875 250.2348 375.73553 258.34268 384.63867 262.65234 C 393.13948 266.76725 409.86096 267.17023 417.62305 263.44727 C 422.48709 261.11431 422.64771 261.12601 426.28906 263.97852 C 428.32977 265.57715 432.7 269.4102 436 272.49805 C 443.86043 279.85313 468.98525 302.5919 473.01758 306 C 474.75287 307.46667 478.43039 310.76731 481.18945 313.33398 C 483.94851 315.90064 488.5587 320.04007 491.43555 322.5332 C 494.31239 325.02634 498.94363 329.09928 501.72656 331.58398 L 506.78711 336.10156 L 500.98633 343.05078 C 476.78821 372.0472 461.3725 415.32359 461.34375 454.33398 C 461.33475 466.60185 461.08795 468 458.93359 468 C 457.61359 468 455.96425 468.527 455.26758 469.16992 C 454.57091 469.81285 447.7 472.26585 440 474.62109 C 432.3 476.97633 424.10965 479.75 421.79883 480.78516 C 419.488 481.82033 417.09983 482.66602 416.49219 482.66602 C 415.03916 482.66602 361.45093 499.91035 358 501.48828 C 356.53333 502.15891 353.27875 503.28637 350.76758 503.99414 C 346.43994 505.21388 345.8482 504.94641 339.43359 498.88281 C 335.71143 495.36433 327.95453 490.18929 322.19531 487.38281 C 312.95826 482.88158 310.26624 482.20517 299.36133 481.63477 C 281.6691 480.70935 270.47178 483.71492 257.14453 492.9668 C 250.25385 497.75036 240 508.78086 240 511.41016 C 240 512.3458 239.51176 513.31025 238.91406 513.55469 C 238.31637 513.79914 236.21507 518.05595 234.24609 523.01367 C 231.24686 530.56551 230.66602 534.08 230.66602 544.67578 C 230.66602 559.11109 233.56289 569.48202 240.70898 580.63086 C 259.73483 610.31369 299.61354 618.82919 329.64062 599.62109 C 336.31324 595.35268 346.05672 585.12741 350.87695 577.33398 C 354.14177 572.05536 358.66602 558.23018 358.66602 553.53516 C 358.66602 551.17764 359.41731 549.01197 360.33398 548.7207 C 361.25065 548.42943 368.00065 546.3248 375.33398 544.04492 C 382.66732 541.76504 389.86732 539.35832 391.33398 538.69531 C 392.80065 538.0323 399.4 535.91277 406 533.98633 C 412.6 532.0599 420.09935 529.69202 422.66602 528.72461 C 432.58966 524.98426 465.21274 514.66602 467.11523 514.66602 C 468.35791 514.66602 469.97242 517.32383 471.36523 521.66602 C 476.46905 537.57761 490.32646 562.61044 501.8125 576.66602 C 513.81796 591.35723 531.6409 607.58083 546.54102 617.38086 L 549.6543 619.42773 L 546.72656 626.71484 C 545.11629 630.72202 543.00697 635.8 542.04102 638 C 541.07507 640.2 539.66629 643.8 538.91016 646 C 537.42735 650.31436 533.09061 661.77735 527.30859 676.66602 C 522.55939 688.89517 519.45288 697.11956 508.66797 726 C 503.73865 739.2 498.57102 752.46487 497.18555 755.47852 C 495.80007 758.49218 494.66602 761.44554 494.66602 762.04102 C 494.66602 763.06865 489.20255 777.63685 486.67969 783.33398 C 486.0302 784.80065 481.21152 797.40064 475.97266 811.33398 C 470.73379 825.26731 464.39702 841.91245 461.89062 848.32422 C 459.38423 854.73599 457.33398 860.34499 457.33398 860.78906 C 457.33398 861.23313 456.4898 863.488 455.45898 865.79883 C 454.42817 868.10966 452.56792 872.79531 451.32422 876.21289 C 449.14101 882.21214 448.84908 882.45111 442.86523 883.08203 C 433.8647 884.03102 424.55437 886.28727 418.92188 888.88672 C 403.65256 895.93363 389.74034 908.47919 383.26562 921.03906 C 381.10303 925.23411 378.96493 928.96732 378.51367 929.33398 C 378.06242 929.70065 376.59952 934.20065 375.26367 939.33398 C 372.41694 950.27326 372.02322 966.99068 374.37109 977.26562 C 379.91091 1001.5096 399.88356 1023.6681 424 1032.3262 C 433.63187 1035.7842 434.52043 1035.8819 452 1035.3848 C 464.75082 1035.0222 470.23365 1034.2827 475.33398 1032.2363 C 493.63166 1024.8946 509.61994 1010.9181 517.08398 995.74219 C 522.1016 985.54038 526.66602 968.86718 526.66602 960.74219 C 526.66602 946.22439 517.56264 920.32813 509.29688 911.33398 C 506.91604 908.74335 506.92257 908.47657 509.55469 902 C 513.42375 892.47985 515.06823 888.21709 522.67188 868 C 526.39526 858.1 529.99894 848.80064 530.67969 847.33398 C 531.69499 845.14654 545.05883 809.9181 554.70508 784 C 555.93328 780.7 557.92603 775.76942 559.13477 773.04297 C 560.34351 770.31653 561.33398 767.52733 561.33398 766.84375 C 561.33398 766.16017 563.38053 760.5901 565.88281 754.4668 C 568.38509 748.34349 572.30913 738.23333 574.60352 732 C 576.89791 725.76666 579.3341 719.46667 580.01758 718 C 581.2989 715.25045 583.99067 707.80948 587.49219 697.33398 C 588.59524 694.03398 590.05842 690.29509 590.74414 689.02539 C 591.42986 687.7557 595.01902 678.45439 598.71875 668.35742 C 608.67199 641.19393 607.15171 643.61592 613.69727 644.48438 C 635.76479 647.41227 646.42871 648.11225 658.66602 647.4375 C 679.97236 646.26269 707.11155 639.51601 725.86523 630.73047 C 732.20071 627.76249 737.9239 625.33398 738.58203 625.33398 C 739.24016 625.33398 739.97821 624.86039 740.22266 624.2832 C 740.4671 623.70601 743.66731 621.51608 747.33398 619.41602 C 771.14247 605.77987 796.60377 579.04095 813.6875 549.73242 C 819.66394 539.47936 827.21316 519.56769 831.78516 502 C 834.99352 489.67206 835.25784 486.50507 835.29297 460 C 835.32617 434.94971 834.95702 429.73475 832.36133 418.66602 C 829.13183 404.89458 822.45849 386.25981 816.60547 374.66602 C 813.03686 367.59722 802.89051 350.70401 801.39062 349.33398 C 800.9892 348.96731 798.06694 345.25463 794.89844 341.08398 C 771.92345 310.84227 728.25486 283.59668 689.53516 275.34766 L 685.07031 274.39648 L 685.9043 226.86523 C 686.36233 200.72269 687.05473 175.71525 687.44336 171.29297 C 688.12866 163.49494 688.3288 163.13884 694.08984 159.49414 C 708.07131 150.64879 719.88106 134.7227 724.51758 118.46094 C 727.21149 109.01254 727.28082 90.827224 724.65625 82 C 718.08391 59.895257 702.21955 42.809082 680.41797 34.353516 C 673.97531 31.854779 670.05645 31.345399 657.20117 31.339844 z M 648.66602 355.35938 C 665.36954 355.34767 668.52459 355.73118 678.66602 358.99219 C 716.17143 371.0522 743.38775 401.00769 751.30078 438.9375 C 757.8339 470.25295 747.89652 505.71806 725.92773 529.49414 C 701.7183 555.69517 669.83305 567.24622 633.33398 563.03516 C 624.61943 562.02973 607.37047 556.00542 597.33398 550.46289 C 585.30841 543.82191 565.68275 524.66919 558.67578 512.73438 C 551.11676 499.85929 545.4033 481.32661 544.45312 466.60742 C 541.75695 424.84137 563.04376 386.63098 600 366.90039 C 617.17068 357.73313 627.11188 355.37441 648.66602 355.35938 z " />
  </g>
</svg>
