<?xml version="1.0" encoding="UTF-8" standalone="no"?>
<!-- Created with Inkscape (http://www.inkscape.org/) -->

<svg
   version="1.1"
   id="svg1"
   width="1066.6667"
   height="1066.6667"
   viewBox="0 0 1066.6667 1066.6667"
   sodipodi:docname="jindabyne-red.svg"
   inkscape:version="1.4.2 (ebf0e940, 2025-05-08)"
   xmlns:inkscape="http://www.inkscape.org/namespaces/inkscape"
   xmlns:sodipodi="http://sodipodi.sourceforge.net/DTD/sodipodi-0.dtd"
   xmlns="http://www.w3.org/2000/svg"
   xmlns:svg="http://www.w3.org/2000/svg">
  <defs
     id="defs1" />
  <sodipodi:namedview
     id="namedview1"
     pagecolor="#ffffff"
     bordercolor="#666666"
     borderopacity="1.0"
     inkscape:showpageshadow="2"
     inkscape:pageopacity="0.0"
     inkscape:pagecheckerboard="0"
     inkscape:deskcolor="#d1d1d1"
     inkscape:zoom="0.55687496"
     inkscape:cx="533.33337"
     inkscape:cy="533.33337"
     inkscape:window-width="1520"
     inkscape:window-height="813"
     inkscape:window-x="0"
     inkscape:window-y="25"
     inkscape:window-maximized="0"
     inkscape:current-layer="g1"
     showgrid="false" />
  <g
     inkscape:groupmode="layer"
     inkscape:label="Image"
     id="g1"
     style="display:inline">
    <path
       style="display:inline;fill:#d30000;fill-opacity:1"
       d="M 0,533.33337 V 0 H 533.33337 1066.6667 V 533.33337 1066.6667 H 533.33337 0 Z"
       id="path1" />
    <path
       style="display:inline;fill:#ffffff;fill-opacity:1"
       d="m 475.33337,1032.2356 c 18.29768,-7.3417 34.28696,-21.3175 41.751,-36.49337 5.01762,-10.20181 9.58234,-26.87436 9.58234,-34.99935 0,-14.5178 -9.10443,-40.41533 -17.37019,-49.40948 -2.38083,-2.59063 -2.37345,-2.85676 0.25867,-9.33333 3.86906,-9.52015 5.51364,-13.78291 13.11729,-34 3.72339,-9.9 7.32678,-19.20001 8.00753,-20.66667 1.0153,-2.18744 14.37859,-37.41524 24.02484,-63.33334 1.2282,-3.3 3.22207,-8.23073 4.43081,-10.95718 1.20874,-2.72644 2.19772,-5.51647 2.19772,-6.20005 0,-0.68358 2.04731,-6.25285 4.54959,-12.37615 2.50228,-6.12331 6.42682,-16.23329 8.72121,-22.46662 2.29439,-6.23334 4.73083,-12.53334 5.41431,-14.00001 1.28132,-2.74955 3.97259,-10.19116 7.47411,-20.66666 1.10305,-3.3 2.56659,-7.03885 3.25231,-8.30855 0.68572,-1.26969 4.27382,-10.56969 7.97355,-20.66666 9.95324,-27.16349 8.43414,-24.74243 14.9797,-23.87397 22.06752,2.92789 32.73125,3.62828 44.96856,2.95353 21.30634,-1.17481 48.44518,-7.92249 67.19886,-16.70803 6.33548,-2.96798 12.05753,-5.39633 12.71566,-5.39633 0.65813,0 1.39659,-0.47224 1.64104,-1.04943 0.24444,-0.57719 3.44444,-2.76766 7.11111,-4.86772 23.80849,-13.63615 49.26977,-40.37538 66.3535,-69.68391 5.97644,-10.25306 13.52604,-30.16459 18.09804,-47.73228 3.20836,-12.32794 3.47287,-15.49493 3.508,-42 0.0332,-25.05029 -0.33673,-30.26461 -2.93242,-41.33334 -3.2295,-13.77144 -9.90204,-32.40621 -15.75506,-44 -3.56861,-7.0688 -13.71572,-23.96331 -15.21561,-25.33334 -0.40142,-0.36667 -3.32225,-4.07902 -6.49075,-8.24967 C 771.9241,310.84198 728.25513,283.59732 689.53543,275.3483 l -4.46462,-0.95116 0.83278,-47.5319 c 0.45803,-26.14254 1.15076,-51.15013 1.53939,-55.57241 0.6853,-7.79803 0.88575,-8.15385 6.64679,-11.79855 13.98147,-8.84535 25.79106,-24.77105 30.42758,-41.03281 2.69391,-9.4484 2.7629,-27.63424 0.13833,-36.461464 -6.57234,-22.104743 -22.4369,-39.191774 -44.23848,-47.64734 -6.44266,-2.498737 -10.36002,-3.007092 -23.2153,-3.012647 -9.00467,-0.0039 -16.80233,0.638658 -18.66667,1.538187 -1.76102,0.849679 -7.32597,3.402842 -12.36657,5.673697 -16.74661,7.544567 -31.55698,26.232938 -36.11557,45.572195 -3.93064,16.675282 -2.20391,30.526812 5.89005,47.248912 4.10229,8.47532 7.29456,12.7671 14.67483,19.72927 5.18764,4.89375 10.25662,8.89773 11.26442,8.89773 1.00779,0 2.1159,0.75 2.46246,1.66667 0.71369,1.88772 -1.533,104.18182 -2.38088,108.40438 -0.44951,2.23857 -2.44104,3.12668 -10.92349,4.87128 -18.26256,3.75606 -31.03875,8.16433 -46.27945,15.96814 -10.57114,5.41281 -25.14736,14.52446 -31.42766,19.64552 -1.83333,1.49493 -3.84672,2.7314 -4.47419,2.74771 -1.37725,0.0358 -5.76283,-3.60483 -21.47126,-17.82404 -6.57,-5.94714 -15.92351,-14.41298 -20.78558,-18.81298 -4.86207,-4.4 -13.88282,-12.5 -20.04611,-18 -24.29429,-21.67975 -24.22761,-21.60387 -22.64405,-25.76894 4.49319,-11.81799 -1.56038,-31.96981 -12.76101,-42.4803 -11.1848,-10.49563 -32.52321,-13.78786 -46.67056,-7.20064 -9.51248,4.42916 -16.85209,11.47749 -21.32074,20.47459 -3.33577,6.71618 -3.79188,9.09567 -3.76502,19.64195 0.0263,10.32305 0.51986,12.93912 3.53188,18.7202 4.26297,8.18207 12.80865,16.29004 21.71179,20.5997 8.50081,4.11491 25.22236,4.51792 32.98445,0.79496 4.86404,-2.33296 5.02532,-2.32311 8.66667,0.5294 2.04071,1.59863 6.41039,5.43302 9.71039,8.52087 7.86043,7.35508 32.98509,30.09344 37.01742,33.50154 1.73529,1.46667 5.41249,4.76667 8.17155,7.33334 2.75906,2.56666 7.37024,6.7065 10.24709,9.19963 2.87684,2.49314 7.50755,6.56591 10.29048,9.05061 l 5.05986,4.51765 -5.79942,6.94939 c -24.19812,28.99642 -39.61482,72.27234 -39.64357,111.28273 -0.009,12.26787 -0.25571,13.66667 -2.41007,13.66667 -1.32,0 -2.97,0.52603 -3.66667,1.16895 -0.69667,0.64293 -7.56667,3.09598 -15.26667,5.45122 -7.7,2.35524 -15.89068,5.12921 -18.2015,6.16437 -2.31083,1.03517 -4.69867,1.88212 -5.30631,1.88212 -1.45303,0 -55.04126,17.24287 -58.49219,18.8208 -1.46667,0.67063 -4.72126,1.79842 -7.23243,2.50619 -4.32764,1.21974 -4.91873,0.95321 -11.33334,-5.11039 -3.72216,-3.51848 -11.47967,-8.69345 -17.23889,-11.49993 -9.23705,-4.50123 -11.92847,-5.17891 -22.83338,-5.74931 -17.69223,-0.92542 -28.89036,2.08046 -42.21761,11.33234 -6.89068,4.78356 -17.14436,15.81428 -17.14436,18.44358 0,0.93564 -0.48902,1.90117 -1.08672,2.14561 -0.59769,0.24445 -2.69769,4.50076 -4.66667,9.45848 -2.99923,7.55184 -3.57995,11.06558 -3.57995,21.66136 0,14.43531 2.89671,24.806 10.0428,35.95484 19.02585,29.68283 58.90434,38.19846 88.93143,18.99036 6.67261,-4.26841 16.41563,-14.49382 21.23586,-22.28725 3.26482,-5.27862 7.78992,-19.10227 7.78992,-23.79729 0,-2.35752 0.75,-4.52472 1.66667,-4.81599 0.91667,-0.29127 7.66667,-2.39493 15,-4.67481 7.33334,-2.27988 14.53334,-4.68769 16,-5.3507 1.46667,-0.66301 8.06667,-2.78164 14.66667,-4.70808 6.6,-1.92643 14.1,-4.29412 16.66667,-5.26153 9.92364,-3.74035 42.54656,-14.05827 44.44905,-14.05827 1.24268,0 2.85583,2.65781 4.24864,7 5.10382,15.91159 18.96203,40.94442 30.44807,55 12.00546,14.69121 29.82769,30.91419 44.72781,40.71422 l 3.11312,2.04754 -2.92777,7.28579 c -1.61027,4.00718 -3.71808,9.08579 -4.68403,11.28579 -0.96595,2.2 -2.37492,5.8 -3.13105,8 -1.48281,4.31436 -5.81971,15.778 -11.60173,30.66667 -4.7492,12.22915 -7.85671,20.4529 -18.64162,49.33334 -4.92932,13.2 -10.09597,26.46572 -11.48144,29.47937 -1.38548,3.01366 -2.51905,5.96658 -2.51905,6.56206 0,1.02763 -5.465,15.59477 -7.98786,21.2919 -0.64949,1.46667 -5.46723,14.06667 -10.70609,28.00001 -5.23887,13.93333 -11.5759,30.57932 -14.0823,36.99109 -2.50639,6.41177 -4.55708,12.02109 -4.55708,12.46516 0,0.44407 -0.8434,2.69808 -1.87422,5.00891 -1.03081,2.31083 -2.89178,6.99771 -4.13548,10.41529 -2.18321,5.99925 -2.47527,6.23635 -8.45912,6.86727 -9.00053,0.94899 -18.30947,3.20636 -23.94197,5.80581 -15.26931,7.04691 -29.18252,19.59257 -35.65724,32.15244 -2.16259,4.19505 -4.30118,7.92737 -4.75244,8.29403 -0.45125,0.36667 -1.91342,4.86667 -3.24927,10 -2.84673,10.93928 -3.23988,27.65793 -0.89201,37.93287 5.53982,24.24393 25.51197,46.40203 49.62841,55.06013 9.63187,3.458 10.52043,3.5551 28,3.058 12.75082,-0.3626 18.23301,-1.1024 23.33334,-3.1488 z"
       id="path2" />
    <path
       style="display:inline;fill:#d30000;fill-opacity:1"
       d="m 633.33338,563.03486 c -8.71455,-1.00543 -25.96351,-7.02886 -36,-12.57139 -12.02557,-6.64098 -31.65054,-25.79497 -38.65751,-37.72979 -7.55902,-12.87508 -13.27354,-31.40655 -14.22372,-46.12574 -2.69617,-41.76605 18.59166,-79.97758 55.5479,-99.70817 17.17068,-9.16726 27.11253,-11.52464 48.66667,-11.53968 16.70352,-0.0117 19.85857,0.37024 30,3.63125 37.50541,12.06001 64.72153,42.01543 72.63456,79.94524 6.53312,31.31545 -3.40402,66.78218 -25.37281,90.55826 -24.20943,26.20103 -56.09602,37.75108 -92.59509,33.54002 z"
       id="path3" />
  </g>
</svg>
